PathFileType	4	(X/Y/Z)	C:/Users/opensim2020/Desktop/walking_exp_matlab/subject03_walking04_straight_02.trc	
DataRate	CameraRate	NumFrames	NumMarkers	Units	OrigDataRate	OrigDataStartFrame	OrigNumFrames	
100.00	100.00	8	51	mm	100.00	1572	259	
Frame#	Time	LFHD			RFHD			LBHD			RBHD			C7			T10			CLAV			STRN			RBAK			LSHO			LUPA			LELB			LFRM			LWRA			LWRB			LFIN			RSHO			RUPA			RELB			RFRM			RWRA			RWRB			RFIN			LASI			RASI			LPSI			RPSI			LTHI			LKNE			LTIB			LANK			LHEE			LTOE			RTHI			RKNE			RTIB			RANK			RHEE			RTOE			*39			*40			*41			*42			*43			*44			*45			*46			*47			*48			*49			*50			
		X1	Y1	Z1	X2	Y2	Z2	X3	Y3	Z3	X4	Y4	Z4	X5	Y5	Z5	X6	Y6	Z6	X7	Y7	Z7	X8	Y8	Z8	X9	Y9	Z9	X10	Y10	Z10	X11	Y11	Z11	X12	Y12	Z12	X13	Y13	Z13	X14	Y14	Z14	X15	Y15	Z15	X16	Y16	Z16	X17	Y17	Z17	X18	Y18	Z18	X19	Y19	Z19	X20	Y20	Z20	X21	Y21	Z21	X22	Y22	Z22	X23	Y23	Z23	X24	Y24	Z24	X25	Y25	Z25	X26	Y26	Z26	X27	Y27	Z27	X28	Y28	Z28	X29	Y29	Z29	X30	Y30	Z30	X31	Y31	Z31	X32	Y32	Z32	X33	Y33	Z33	X34	Y34	Z34	X35	Y35	Z35	X36	Y36	Z36	X37	Y37	Z37	X38	Y38	Z38	X39	Y39	Z39	X40	Y40	Z40	X41	Y41	Z41	X42	Y42	Z42	X43	Y43	Z43	X44	Y44	Z44	X45	Y45	Z45	X46	Y46	Z46	X47	Y47	Z47	X48	Y48	Z48	X49	Y49	Z49	X50	Y50	Z50	X51	Y51	Z51	

33	0.320	1599.90369	1153.05676	1629.52832	1468.47083	1174.46912	1627.09753	1617.64185	1276.07312	1574.17676	1487.14966	1291.77380	1572.24084	1554.05298	1306.77869	1420.76196	1553.81140	1346.54382	1107.84802	1553.01440	1182.23291	1345.94226	1564.42908	1141.34106	1179.69055	1453.76306	1357.27209	1244.82092	1708.42834	1224.22095	1384.96204	1777.12805	1226.96948	1187.95972	1787.62781	1215.98438	1064.11182	1787.40295	1183.12170	937.98267	1757.14185	1155.09009	821.74072	1805.99890	1182.24866	824.21692	1794.10327	1164.76111	741.07922	1393.59436	1225.88940	1366.64514	1324.11450	1216.30371	1142.36511	1314.62048	1198.75427	1030.13721	1316.96350	1181.14526	894.16229	1357.67627	1156.07446	799.23700	1309.69714	1180.89514	793.57507	1325.69153	1164.16321	721.46716	1679.43262	1188.56299	936.63049	1441.75928	1169.61353	945.61224	1617.33118	1346.75195	959.13928	1469.79077	1334.63330	976.16022	1734.24451	1240.76990	634.32019	1721.33801	1221.69202	454.33841	1704.59985	1377.81653	336.53235	1651.74890	1529.91370	200.90369	1606.52942	1574.59460	212.53963	1634.62061	1477.53589	61.05224	1404.36426	1210.41687	651.44293	1450.29810	1183.78418	473.80814	1455.62048	1215.05298	285.53229	1515.28662	1224.15442	72.00965	1566.34094	1266.78052	40.58136	1539.13123	1080.54773	37.44905	1560.61572	1247.91431	1681.02283																																	 
34	0.330	1600.35083	1143.72083	1630.05627	1468.86938	1164.97754	1627.55530	1617.90100	1266.68359	1574.53357	1487.49316	1282.32751	1572.54810	1554.22034	1297.17957	1421.29211	1553.40430	1337.45691	1108.45276	1553.61218	1172.80151	1346.29614	1564.83301	1132.07520	1179.95850	1453.56506	1347.92004	1245.54968	1709.15967	1215.79297	1384.76025	1777.42151	1219.60510	1187.29065	1788.16418	1209.29761	1063.60315	1788.48438	1178.85156	936.61829	1758.91455	1153.81970	819.38306	1807.98633	1180.58484	822.90710	1795.97083	1166.30725	738.97449	1393.94885	1215.85168	1367.03308	1324.45288	1203.75854	1142.75378	1314.79529	1184.74988	1030.84094	1316.92859	1165.98047	894.95264	1357.75781	1140.96069	800.02734	1309.17493	1164.56079	794.44202	1324.59448	1146.61487	722.84796	1679.46973	1179.81323	937.29370	1441.09668	1159.70374	946.28717	1617.25916	1337.87634	959.09058	1469.66919	1325.61072	976.65747	1735.00122	1225.97205	635.29651	1722.34741	1202.15588	455.91348	1706.45337	1357.12659	336.95984	1654.80444	1509.57727	201.73219	1609.05005	1554.57568	211.47617	1638.88635	1454.32849	62.79988	1404.91663	1202.92407	651.34747	1450.56274	1179.00085	473.55197	1455.74805	1212.54688	285.66595	1515.42822	1223.96875	72.24863	1566.48413	1266.75049	40.83842	1539.16541	1080.44666	37.35275	1560.95667	1238.68188	1681.30188																																	 
35	0.340	1600.90759	1134.43262	1630.58582	1469.34106	1155.40637	1627.82617	1618.29309	1257.33020	1574.92456	1487.81506	1272.72620	1572.79980	1554.36743	1287.64978	1421.78992	1553.05054	1328.50842	1109.14636	1554.24329	1163.41077	1346.66931	1565.18274	1122.98560	1180.26135	1453.56274	1338.72424	1246.38794	1709.91101	1207.41187	1384.73401	1777.92407	1212.63281	1186.89417	1788.65454	1202.85510	1063.21216	1789.61292	1174.68787	935.66437	1760.64233	1152.46887	817.56378	1809.96863	1178.71680	822.04559	1797.96851	1167.26355	737.45667	1394.50549	1206.24561	1367.61243	1324.71350	1191.45728	1143.48816	1315.20618	1170.74744	1031.83826	1316.96216	1150.74487	896.17358	1357.83716	1125.06592	801.43146	1308.79773	1148.19556	795.74945	1323.96179	1128.87329	724.60767	1679.35303	1170.99390	938.17108	1440.91980	1150.92004	946.83307	1617.15833	1328.96643	959.39557	1469.57019	1316.56812	977.10352	1734.84546	1211.79041	636.18945	1723.01379	1182.50586	457.38123	1708.10938	1336.22021	337.06482	1657.14917	1487.88879	200.54027	1611.50977	1533.90186	209.03275	1642.19385	1429.48450	62.94404	1405.25940	1195.98206	651.49854	1450.85559	1174.34509	473.28677	1455.96021	1209.98645	285.73428	1515.72583	1223.76355	72.59770	1566.69556	1266.71545	41.28456	1539.16614	1080.32434	37.27305	1561.25293	1229.40283	1681.67676																																	 
36	0.350	1601.45251	1125.11597	1631.06372	1469.93018	1145.89661	1628.23352	1618.67542	1247.95349	1575.30823	1488.35657	1263.28796	1573.14685	1554.55212	1278.20459	1422.27576	1553.35608	1320.19885	1110.24194	1554.74988	1154.19360	1346.96167	1565.42981	1113.91650	1180.54626	1453.48792	1329.32996	1247.21118	1710.50745	1198.95569	1384.77588	1778.35498	1205.93274	1186.66956	1789.19031	1196.80444	1063.03223	1790.75537	1170.63464	935.08588	1762.42493	1150.76587	816.39667	1811.96997	1176.72412	821.75812	1800.09790	1167.85303	736.55487	1394.59265	1195.80615	1368.08057	1325.09033	1179.16565	1144.41321	1315.67798	1156.88367	1033.19189	1317.12231	1135.55835	897.69482	1357.42395	1109.04175	803.39020	1308.48389	1131.76990	797.45947	1323.02820	1110.99548	726.80713	1679.08179	1162.07947	939.27631	1441.26807	1143.01428	947.20325	1617.07507	1320.07922	959.95892	1469.45679	1307.61267	977.44147	1735.03027	1196.40979	637.02527	1723.22498	1163.28015	459.36789	1709.72559	1315.07031	336.97400	1659.32837	1465.40002	198.33870	1614.14783	1512.73267	205.40730	1645.53723	1403.23438	63.15626	1405.66028	1189.07690	651.33820	1451.16138	1169.88000	473.11844	1456.15442	1207.39990	285.84418	1515.87158	1223.40173	72.64876	1566.84802	1266.53149	41.54914	1539.17664	1080.14587	37.19395	1561.57141	1220.06458	1682.11780																																	 
37	0.360	1602.09412	1115.72693	1631.50134	1470.61719	1135.95752	1628.45166	1618.97998	1238.45471	1575.62439	1488.80774	1253.67175	1573.41150	1554.72900	1268.85791	1422.77185	1553.06934	1311.35327	1110.89111	1555.30103	1144.99500	1347.33374	1565.66296	1104.87939	1180.84680	1453.47083	1320.13513	1248.20593	1710.99036	1190.54578	1385.01416	1778.82080	1199.60327	1186.74023	1789.88721	1191.10840	1063.21558	1791.97266	1166.67334	934.88025	1764.16870	1148.99475	815.63708	1813.85693	1174.64270	821.92346	1802.44006	1167.87695	736.32330	1395.04919	1186.01050	1368.89648	1325.37659	1167.18591	1145.62952	1316.19458	1143.12048	1034.68286	1317.21814	1120.50854	899.60834	1357.38391	1093.25647	805.46686	1308.23328	1115.42615	799.52124	1322.92151	1092.79211	729.29144	1678.78345	1153.04211	940.46240	1440.43799	1133.55371	947.60999	1617.05078	1311.25586	960.65149	1469.37439	1298.72144	977.72601	1734.46960	1181.10486	638.65576	1722.99158	1144.04919	461.11423	1710.55847	1293.50610	336.05399	1661.84473	1442.85693	195.59837	1616.96106	1491.06311	200.55400	1648.64111	1375.82141	63.21129	1406.25916	1181.80176	651.23041	1451.50146	1165.50012	472.87531	1456.44324	1204.89404	286.04395	1516.11951	1223.08521	72.92277	1566.96716	1266.46790	41.91151	1539.16443	1079.98181	37.12346	1563.06592	1210.72095	1681.60535																																	 
38	0.370	1602.92590	1106.34290	1631.87537	1471.33777	1126.70227	1628.96045	1619.85022	1229.25940	1576.11340	1489.38403	1244.10645	1573.81250	1554.96289	1259.65503	1423.28967	1552.93213	1302.69971	1111.56396	1555.85095	1135.81494	1347.61804	1565.84729	1096.12549	1181.02429	1453.26685	1310.79272	1249.26929	1711.35571	1181.96204	1385.32300	1779.38513	1193.39844	1187.03284	1790.65149	1185.72290	1063.53223	1793.20667	1162.80090	934.98425	1766.13184	1146.82153	815.38873	1815.72778	1172.27490	822.36682	1804.92078	1167.32788	736.51202	1395.74219	1176.83679	1370.10547	1325.57764	1155.47437	1147.00806	1316.62280	1129.74963	1036.45862	1317.45105	1105.11755	901.69208	1357.81750	1078.26917	807.58276	1308.07703	1099.09143	801.78180	1321.95276	1074.99634	732.07611	1678.49402	1143.98840	941.70746	1440.59619	1125.50928	947.85059	1617.13281	1302.38940	961.46655	1469.35010	1289.97400	977.87598	1734.91003	1164.02063	639.95813	1722.49109	1125.19922	463.17719	1711.92188	1272.51587	335.21793	1664.16919	1419.37756	191.68361	1619.78479	1468.70325	194.32146	1651.26660	1346.30261	62.76236	1406.39136	1175.31055	651.02399	1451.85291	1161.30188	472.73917	1456.69092	1202.53516	286.21191	1516.23669	1222.76233	73.22991	1567.13464	1266.34448	42.39500	1539.15063	1079.82166	37.03147	1562.80396	1201.26855	1682.74023																																	 
39	0.380	1603.75366	1096.95081	1632.13647	1472.21301	1116.92993	1629.19690	1620.35925	1219.86230	1576.43164	1489.91028	1234.46631	1574.19153	1555.11316	1250.43567	1423.71765	1552.74072	1293.95386	1112.12781	1556.31702	1126.75879	1347.90454	1565.98865	1087.35132	1181.22729	1452.71643	1301.20020	1250.16101	1711.66760	1173.40894	1385.68848	1780.01306	1187.23901	1187.46155	1791.57898	1180.56873	1064.00732	1794.53748	1159.04126	935.32123	1767.70105	1144.61621	815.28943	1817.55322	1169.70386	823.01483	1807.40491	1166.22534	736.95435	1395.97363	1166.61902	1370.77271	1325.64978	1144.15100	1148.49426	1317.02710	1116.53845	1038.28796	1317.49121	1090.36841	904.01019	1357.79358	1062.50452	809.99506	1307.94385	1082.86523	804.21552	1321.44080	1057.43323	734.99933	1678.07788	1134.70227	942.79688	1439.81104	1116.75537	948.31268	1617.31213	1293.49585	962.26672	1469.34973	1281.27869	977.93372	1734.95813	1148.86035	641.23370	1721.87756	1106.93652	465.70581	1712.81042	1251.33557	334.08041	1666.50671	1395.30212	186.95714	1622.58386	1445.59534	186.99832	1653.64441	1315.83569	62.27734	1407.08521	1168.70239	650.95959	1452.14526	1157.19128	472.50610	1456.92529	1200.32214	286.44666	1515.92700	1222.65747	74.03625	1567.76770	1265.77869	42.95254	1539.11072	1079.71191	36.96505	1563.67407	1191.76331	1683.04700																																	 
40	0.390	1604.76465	1087.54346	1632.32471	1473.09436	1107.39807	1629.76965	1621.14258	1210.60559	1576.80444	1490.56995	1224.94458	1574.76917	1555.34363	1241.26770	1424.14441	1552.51746	1285.19592	1112.71863	1556.83521	1117.60999	1348.15393	1566.13452	1078.49219	1181.46338	1452.28870	1291.81262	1251.18469	1711.93530	1164.88794	1386.00671	1780.71802	1181.12976	1187.96301	1792.55310	1175.57666	1064.49207	1795.88660	1155.15125	935.69440	1769.36169	1142.05798	815.31134	1819.21790	1166.94995	823.66833	1809.79761	1164.56714	737.54645	1396.69421	1157.24829	1371.82104	1325.72742	1132.89038	1149.87109	1317.07080	1103.82251	1040.13245	1317.58191	1075.63782	906.28827	1357.90808	1046.56897	812.64520	1307.88049	1066.72656	806.70850	1321.13159	1040.07300	738.08313	1677.56543	1125.50073	943.78412	1439.49573	1108.40149	948.42108	1617.59863	1284.56189	963.05847	1469.46350	1272.71338	977.98645	1734.86072	1133.89856	643.02789	1720.80359	1089.00659	468.27444	1713.01526	1229.80408	332.43622	1668.58923	1370.09729	181.11603	1625.55884	1421.52234	178.75209	1655.61450	1284.83447	61.34373	1407.73413	1162.06396	650.59131	1452.45190	1153.16235	472.34232	1457.16333	1198.20227	286.69376	1516.75122	1222.16479	73.99774	1567.56445	1266.08374	43.38313	1539.21362	1079.53796	36.89217	1564.48523	1182.17480	1683.15759																																	 
